<svg height="512" viewBox="0 0 64 64" width="512" xmlns="http://www.w3.org/2000/svg"><g id="performance"><rect fill="#ffdaaa" height="36" rx="1" width="58" x="3" y="25"/><path d="m61 26v34a1 1 0 0 1 -1 1h-2a1 1 0 0 0 1-1v-34a1 1 0 0 0 -1-1h2a1 1 0 0 1 1 1z" fill="#ffc477"/><path d="m45 29 4 10h-7.4l-1.6-4h3l-1.58-3.17a28.418 28.418 0 0 0 .81-2.83z" fill="#57a4ff"/><circle cx="41" cy="52" fill="#57a4ff" r="6"/><path d="m49 39h-2l-4-10h2z" fill="#2488ff"/><path d="m47 52a6 6 0 0 1 -6 6 5.47 5.47 0 0 1 -1-.09 5.993 5.993 0 0 0 0-11.82 5.47 5.47 0 0 1 1-.09 6 6 0 0 1 6 6z" fill="#2488ff"/><path d="m41.42 31.83 1.58 3.17h-3-3.48-1.52l-1-4h-4l-1 4h-1.52-3.48-3l1.58-3.16v-.01l3.42-6.83h12z" fill="#00e7f0"/><path d="m43 22c0 .94-.04 1.87-.12 2.78a29.306 29.306 0 0 1 -.65 4.22 28.418 28.418 0 0 1 -.81 2.83l-3.42-6.83h-12l-3.42 6.83a28.418 28.418 0 0 1 -.81-2.83 29.306 29.306 0 0 1 -.65-4.22c-.08-.91-.12-1.84-.12-2.78 0-10.49 11-19 11-19s11 8.51 11 19z" fill="#ffeb99"/><path d="m36.52 35a9.3 9.3 0 0 1 .48 3c0 3.87-5 7-5 7s-5-3.13-5-7a9.3 9.3 0 0 1 .48-3z" fill="#ffeb99"/><path d="m43 22c0 .94-.04 1.87-.12 2.78a29.306 29.306 0 0 1 -.65 4.22 28.418 28.418 0 0 1 -.81 2.83l-1.27-2.53c.03-.1.06-.2.08-.3a29.306 29.306 0 0 0 .65-4.22c.08-.91.12-1.84.12-2.78 0-8.54-7.29-15.77-10-18.16.62-.55 1-.84 1-.84s11 8.51 11 19z" fill="#ffcd00"/><path d="m37 38c0 3.87-5 7-5 7s-.41-.26-1-.72c1.46-1.14 4-3.52 4-6.28a9.3 9.3 0 0 0 -.48-3h2a9.3 9.3 0 0 1 .48 3z" fill="#ffcd00"/><circle cx="32" cy="14" fill="#00e7f0" r="4"/><path d="m36 14a4 4 0 0 1 -4 4 3.657 3.657 0 0 1 -1-.13 4 4 0 0 0 0-7.74 3.657 3.657 0 0 1 1-.13 4 4 0 0 1 4 4z" fill="#00b6bd"/><path d="m34 31 1 4h-6l1-4z" fill="#57a4ff"/><path d="m28 49h3v4h-3z" fill="#00e7f0"/><path d="m21 47h3v6h-3z" fill="#57a4ff"/><path d="m24 35-1.6 4h-7.4l4-10h2.77a28.418 28.418 0 0 0 .81 2.83v.01l-1.58 3.16z" fill="#57a4ff"/><path d="m14 45h3v8h-3z" fill="#00e7f0"/><path d="m7 39h3v14h-3z" fill="#57a4ff"/><path d="m60 24h-15v2h15v34h-56v-34h15v-2h-15a2 2 0 0 0 -2 2v34a2 2 0 0 0 2 2h56a2 2 0 0 0 2-2v-34a2 2 0 0 0 -2-2z"/><path d="m34 52a7 7 0 1 0 7-7 7.009 7.009 0 0 0 -7 7zm12 0a5 5 0 1 1 -6-4.9v4.9h2v-4.9a5.009 5.009 0 0 1 4 4.9z"/><path d="m22 56h10v2h-10z"/><path d="m12 56h8v2h-8z"/><path d="m6 56h4v2h-4z"/><path d="m11 53v-14a1 1 0 0 0 -1-1h-3a1 1 0 0 0 -1 1v14a1 1 0 0 0 1 1h3a1 1 0 0 0 1-1zm-2-1h-1v-12h1z"/><path d="m17 54a1 1 0 0 0 1-1v-8a1 1 0 0 0 -1-1h-3a1 1 0 0 0 -1 1v8a1 1 0 0 0 1 1zm-2-8h1v6h-1z"/><path d="m25 53v-6a1 1 0 0 0 -1-1h-3a1 1 0 0 0 -1 1v6a1 1 0 0 0 1 1h3a1 1 0 0 0 1-1zm-2-1h-1v-4h1z"/><path d="m32 49a1 1 0 0 0 -1-1h-3a1 1 0 0 0 -1 1v4a1 1 0 0 0 1 1h3a1 1 0 0 0 1-1zm-2 3h-1v-2h1z"/><path d="m57 14v-4h-2v3h-9v2h10a1 1 0 0 0 1-1z"/><path d="m50 6h12v2h-12z"/><path d="m50 2h2v2h-2z"/><path d="m54 2h8v2h-8z"/><path d="m50 56h8v2h-8z"/><path d="m50 48h8v2h-8z"/><path d="m50 52h2v2h-2z"/><path d="m54 52h4v2h-4z"/><path d="m50 44h2v2h-2z"/><path d="m54 44h4v2h-4z"/><path d="m9 8h9v-2h-10a1 1 0 0 0 -1 1v4h2z"/><path d="m2 13h12v2h-12z"/><path d="m12 17h2v2h-2z"/><path d="m2 17h8v2h-8z"/><path d="m32 19a5 5 0 1 0 -5-5 5.006 5.006 0 0 0 5 5zm0-8a3 3 0 1 1 -3 3 3 3 0 0 1 3-3z"/><path d="m19 28a1 1 0 0 0 -.929.629l-4 10a1 1 0 0 0 .929 1.371h7.4a1 1 0 0 0 .929-.629l1.348-3.371h1.516a10.688 10.688 0 0 0 -.193 2c0 4.374 5.246 7.708 5.47 7.848a1 1 0 0 0 1.06 0c.224-.14 5.47-3.474 5.47-7.848a10.688 10.688 0 0 0 -.193-2h1.516l1.348 3.371a1 1 0 0 0 .929.629h7.4a1 1 0 0 0 .929-1.371l-4-10a1 1 0 0 0 -.929-.629h-1.566a32.882 32.882 0 0 0 .566-6c0-10.856-10.923-19.432-11.388-19.791a1 1 0 0 0 -1.224 0c-.465.359-11.388 8.935-11.388 19.791a32.882 32.882 0 0 0 .566 6zm2.724 10h-5.247l3.2-8h1.317c.154.595.33 1.172.517 1.741l-1.406 2.812a1 1 0 0 0 .895 1.447h1.523zm19.658-4h-5.6l-.81-3.242a1 1 0 0 0 -.972-.758h-4a1 1 0 0 0 -.97.758l-.81 3.242h-5.6l4-8h10.762zm-7.663 0h-3.438l.5-2h2.438zm2.281 4c0 2.58-2.8 4.908-4 5.784-1.2-.876-4-3.2-4-5.784a8.427 8.427 0 0 1 .26-2h7.48a8.427 8.427 0 0 1 .26 2zm8.323-8 3.2 8h-5.247l-.8-2h1.524a1 1 0 0 0 .9-1.447l-1.406-2.812c.187-.569.363-1.146.517-1.741zm-12.323-25.7c2.261 1.946 10 9.231 10 17.7a30.389 30.389 0 0 1 -.83 7.1l-2.27-4.547a1 1 0 0 0 -.9-.553h-12a1 1 0 0 0 -.895.553l-2.275 4.547a30.389 30.389 0 0 1 -.83-7.1c0-8.469 7.739-15.754 10-17.7z"/><path d="m56 28h2v2h-2z"/><path d="m52 28h2v2h-2z"/><path d="m48 28h2v2h-2z"/><path d="m6 28h2v2h-2z"/><path d="m10 28h2v2h-2z"/><path d="m14 28h2v2h-2z"/></g></svg>