<svg id="Layer_5" enable-background="new 0 0 64 64" height="512" viewBox="0 0 64 64" width="512" xmlns="http://www.w3.org/2000/svg"><path d="m54 8h-35l-2 2h-15v16 8 12c0 1.1.9 2 2 2h58v-40z" fill="#e6e9ed"/><path d="m2 10v-6c0-1.1.9-2 2-2h56c1.1 0 2 .9 2 2v4h-8-35l-2 2z" fill="#fcd770"/><path d="m51.49 34.44c6.05 1.56 10.51 7.04 10.51 13.56 0 7.73-6.27 14-14 14s-14-6.27-14-14 6.27-14 14-14c1.21 0 2.38.15 3.49.44z" fill="#ff826e"/><path d="m30 48-10 10-3-3 5-5h-16v-2-2h16l-5-5 3-3z" fill="#5cd6b3"/><path d="m13 5h2v2h-2z"/><path d="m9 5h2v2h-2z"/><path d="m5 5h2v2h-2z"/><path d="m60 1h-56c-1.654 0-3 1.346-3 3v42c0 1.654 1.346 3 3 3h1v2h14.586l-4 4 4.414 4.414 10.414-10.414h2.637c.518 7.805 7.016 14 14.949 14 8.271 0 15-6.729 15-15v-44c0-1.654-1.346-3-3-3zm-56 2h56c.551 0 1 .449 1 1v3h-42.414l-2 2h-13.586v-5c0-.551.449-1 1-1zm16 53.586-1.586-1.586 6-6h-17.414v-2h17.414l-6-6 1.586-1.586 8.586 8.586zm28 4.414c-7.168 0-13-5.832-13-13s5.832-13 13-13 13 5.832 13 13-5.832 13-13 13zm0-28c-7.933 0-14.431 6.195-14.949 14h-2.637l-10.414-10.414-4.414 4.414 4 4h-14.586v2h-1c-.551 0-1-.448-1-1v-35h14.414l2-2h41.586v31.548c-2.591-4.503-7.442-7.548-13-7.548z"/><path d="m51.219 43.625 3.5 4.375-3.5 4.375 1.562 1.25 4.5-5.625-4.5-5.625z"/><path d="m43.219 42.375-4.5 5.625 4.5 5.625 1.562-1.25-3.5-4.375 3.5-4.375z"/><path d="m40.929 47h14.142v2h-14.142z" transform="matrix(.142 -.99 .99 .142 -6.314 88.718)"/><path d="m7 20c0 1.654 1.346 3 3 3h1v-2h-1c-.551 0-1-.449-1-1 0-.771-.301-1.468-.78-2 .479-.532.78-1.229.78-2 0-.551.449-1 1-1h1v-2h-1c-1.654 0-3 1.346-3 3 0 .551-.449 1-1 1h-1v2h1c.551 0 1 .449 1 1z"/><path d="m33 28c0-1.654-1.346-3-3-3h-1v2h1c.551 0 1 .449 1 1 0 .771.301 1.468.78 2-.48.532-.78 1.229-.78 2 0 .551-.449 1-1 1h-1v2h1c1.654 0 3-1.346 3-3 0-.551.449-1 1-1h1v-2h-1c-.551 0-1-.449-1-1z"/><path d="m13 13h2v2h-2z"/><path d="m17 13h18v2h-18z"/><path d="m13 17h22v2h-22z"/><path d="m13 21h22v2h-22z"/><path d="m25 33h2v2h-2z"/><path d="m21 33h2v2h-2z"/><path d="m5 33h14v2h-14z"/><path d="m5 29h22v2h-22z"/><path d="m5 25h22v2h-22z"/><path d="m43 19v-6c0-1.103-.897-2-2-2h-2c-1.103 0-2 .897-2 2v6c0 1.103.897 2 2 2h2c1.103 0 2-.897 2-2zm-4-6h2v6h-2z"/><path d="m49 11h-2c-1.103 0-2 .897-2 2v6c0 1.103.897 2 2 2h2c1.103 0 2-.897 2-2v-6c0-1.103-.897-2-2-2zm0 8h-2v-6h2z"/><path d="m53 11h2v10h-2z"/><path d="m57 11h2v10h-2z"/><path d="m45 23h-2c-1.103 0-2 .897-2 2v6c0 1.103.897 2 2 2h2c1.103 0 2-.897 2-2v-6c0-1.103-.897-2-2-2zm0 8h-2v-6h2z"/><path d="m49 23h2v10h-2z"/><path d="m53 23h2v10h-2z"/><path d="m57 23h2v10h-2z"/></svg>