<svg height="512" viewBox="0 0 64 64" width="512" xmlns="http://www.w3.org/2000/svg"><g id="plan"><path d="m61 5v38h-58v-38a2.006 2.006 0 0 1 2-2h54a2.006 2.006 0 0 1 2 2z" fill="#ffdaaa"/><path d="m61 5v38h-2v-38a2.006 2.006 0 0 0 -2-2h2a2.006 2.006 0 0 1 2 2z" fill="#ffc477"/><path d="m57 41v4l-2.6.65 1.38 2.3-2.83 2.83-2.3-1.38-.65 2.6h-4l-.65-2.6-2.3 1.38-2.83-2.83 1.38-2.3-2.6-.65v-4l2.6-.65-1.38-2.3 2.83-2.83 2.3 1.38.65-2.6h4l.65 2.6 2.3-1.38 2.83 2.83-1.38 2.3z" fill="#898890"/><path d="m52 26v4h-8v-4h4z" fill="#57a4ff"/><path d="m52 16v4h-4-4v-2-2z" fill="#57a4ff"/><circle cx="48" cy="43" fill="#ffeb99" r="3"/><path d="m32 27 5 7-3 5h-4l-3-5z" fill="#ffeb99"/><path d="m36 39v4h-2-4-2v-4h2 4z" fill="#00e7f0"/><path d="m36 18v2h-8v-2-2h4 4z" fill="#57a4ff"/><path d="m36 6v4h-4-4v-4z" fill="#57a4ff"/><path d="m34 43v16a2.006 2.006 0 0 1 -2 2 2.015 2.015 0 0 1 -2-2v-16z" fill="#ffeb99"/><path d="m25 41v4l-2.6.65 1.38 2.3-2.83 2.83-2.3-1.38-.65 2.6h-4l-.65-2.6-2.3 1.38-2.83-2.83 1.38-2.3-2.6-.65v-4l2.6-.65-1.38-2.3 2.83-2.83 2.3 1.38.65-2.6h4l.65 2.6 2.3-1.38 2.83 2.83-1.38 2.3z" fill="#898890"/><path d="m20 26v4h-8v-4h4z" fill="#57a4ff"/><path d="m20 18v2h-4-4v-4h8z" fill="#57a4ff"/><circle cx="16" cy="43" fill="#ffeb99" r="3"/><path d="m52 15h-8a1 1 0 0 0 -1 1v1h-6v-1a1 1 0 0 0 -1-1h-3v-4h3a1 1 0 0 0 1-1v-4a1 1 0 0 0 -1-1h-8a1 1 0 0 0 -1 1v4a1 1 0 0 0 1 1h3v4h-3a1 1 0 0 0 -1 1v1h-6v-1a1 1 0 0 0 -1-1h-8a1 1 0 0 0 -1 1v4a1 1 0 0 0 1 1h3v4h-3a1 1 0 0 0 -1 1v4a1 1 0 0 0 1 1h8a1 1 0 0 0 1-1v-4a1 1 0 0 0 -1-1h-3v-4h3a1 1 0 0 0 1-1v-1h6v1a1 1 0 0 0 1 1h8a1 1 0 0 0 1-1v-1h6v1a1 1 0 0 0 1 1h3v4h-3a1 1 0 0 0 -1 1v4a1 1 0 0 0 1 1h8a1 1 0 0 0 1-1v-4a1 1 0 0 0 -1-1h-3v-4h3a1 1 0 0 0 1-1v-4a1 1 0 0 0 -1-1zm-23-8h6v2h-6zm-10 22h-6v-2h6zm0-10h-6v-2h6zm16 0h-6v-2h6zm16 10h-6v-2h6zm0-10h-6v-2h6z"/><path d="m59 2h-54a3 3 0 0 0 -3 3v38a1 1 0 0 0 1 1h3v1a1 1 0 0 0 .758.97l1.292.323-.686 1.142a1 1 0 0 0 .151 1.222l2.828 2.828a1 1 0 0 0 1.221.151l1.143-.686.323 1.293a1 1 0 0 0 .97.757h4a1 1 0 0 0 .97-.757l.323-1.293 1.143.686a1 1 0 0 0 1.221-.151l2.828-2.828a1 1 0 0 0 .151-1.222l-.686-1.142 1.292-.323a1 1 0 0 0 .758-.97v-1h3v15a3 3 0 0 0 6 0v-15h3v1a1 1 0 0 0 .758.97l1.292.323-.686 1.142a1 1 0 0 0 .151 1.222l2.828 2.828a1 1 0 0 0 1.221.151l1.143-.686.323 1.293a1 1 0 0 0 .97.757h4a1 1 0 0 0 .97-.757l.323-1.293 1.143.686a1 1 0 0 0 1.221-.151l2.828-2.828a1 1 0 0 0 .151-1.222l-.686-1.142 1.292-.323a1 1 0 0 0 .758-.97v-1h3a1 1 0 0 0 1-1v-38a3 3 0 0 0 -3-3zm-35 42.219-1.844.461a1 1 0 0 0 -.615 1.485l.979 1.63-1.72 1.724-1.63-.978a1 1 0 0 0 -1.484.615l-.467 1.844h-2.438l-.462-1.844a1 1 0 0 0 -1.484-.615l-1.63.978-1.725-1.719.979-1.63a1 1 0 0 0 -.615-1.485l-1.844-.466v-2.438l1.844-.461a1 1 0 0 0 .615-1.485l-.979-1.63 1.725-1.724 1.63.978a1 1 0 0 0 1.484-.615l.462-1.844h2.438l.462 1.844a1 1 0 0 0 1.484.615l1.63-.978 1.725 1.724-.979 1.63a1 1 0 0 0 .615 1.485l1.844.461zm6.566-6.219-2.372-3.952 3.806-5.327 3.806 5.327-2.372 3.952zm4.434 2v2h-6v-2zm-2 19a1 1 0 0 1 -2 0v-15h2zm23-14.781-1.844.461a1 1 0 0 0 -.615 1.485l.979 1.63-1.72 1.724-1.63-.978a1 1 0 0 0 -1.484.615l-.467 1.844h-2.438l-.462-1.844a1 1 0 0 0 -1.484-.615l-1.63.978-1.725-1.719.979-1.63a1 1 0 0 0 -.615-1.485l-1.844-.466v-2.438l1.844-.461a1 1 0 0 0 .615-1.485l-.979-1.63 1.725-1.724 1.63.978a1 1 0 0 0 1.484-.615l.462-1.844h2.438l.462 1.844a1 1 0 0 0 1.484.615l1.63-.978 1.725 1.724-.979 1.63a1 1 0 0 0 .615 1.485l1.844.461zm4-2.219h-2v-1a1 1 0 0 0 -.758-.97l-1.292-.323.686-1.142a1 1 0 0 0 -.151-1.222l-2.828-2.828a1 1 0 0 0 -1.221-.151l-1.143.686-.323-1.293a1 1 0 0 0 -.97-.757h-4a1 1 0 0 0 -.97.757l-.323 1.293-1.143-.686a1 1 0 0 0 -1.221.151l-2.828 2.828a1 1 0 0 0 -.151 1.222l.686 1.142-1.292.323a1 1 0 0 0 -.758.97v1h-1v-3a1 1 0 0 0 -1-1h-.234l2.091-3.485a1 1 0 0 0 -.044-1.1l-5-7a1.035 1.035 0 0 0 -1.626 0l-5 7a1 1 0 0 0 -.044 1.1l2.091 3.485h-.234a1 1 0 0 0 -1 1v3h-1v-1a1 1 0 0 0 -.758-.97l-1.292-.323.686-1.142a1 1 0 0 0 -.151-1.222l-2.828-2.828a1 1 0 0 0 -1.221-.151l-1.143.686-.323-1.293a1 1 0 0 0 -.97-.757h-4a1 1 0 0 0 -.97.757l-.323 1.293-1.143-.686a1 1 0 0 0 -1.221.151l-2.828 2.828a1 1 0 0 0 -.151 1.222l.686 1.142-1.292.323a1 1 0 0 0 -.758.97v1h-2v-37a1 1 0 0 1 1-1h54a1 1 0 0 1 1 1z"/><path d="m48 39a4 4 0 1 0 4 4 4 4 0 0 0 -4-4zm0 6a2 2 0 1 1 2-2 2 2 0 0 1 -2 2z"/><path d="m16 39a4 4 0 1 0 4 4 4 4 0 0 0 -4-4zm0 6a2 2 0 1 1 2-2 2 2 0 0 1 -2 2z"/></g></svg>