<svg id="Layer_5" enable-background="new 0 0 64 64" height="512" viewBox="0 0 64 64" width="512" xmlns="http://www.w3.org/2000/svg"><path d="m47 58v4h-30v-4h10 10z" fill="#969faa"/><g fill="#aab2bd"><path d="m37 54v4h-10v-4-4h10z"/><path d="m18.45 55.11c.34-.68 1.03-1.11 1.79-1.11h6.76v4h-10z"/><path d="m45.55 55.11 1.45 2.89h-10v-4h6.76c.76 0 1.45.43 1.79 1.11z"/></g><path d="m62 42v4c0 2.21-1.79 4-4 4h-21-10-21c-2.21 0-4-1.79-4-4v-4h6 15v2c0 1.1.9 2 2 2h4 6 4c1.1 0 2-.9 2-2v-2h15z" fill="#ccd1d9"/><path d="m23 42v2c0 1.1.9 2 2 2h14c1.1 0 2-.9 2-2v-2z" fill="#fcd770"/><path d="m8 12v30h-6v-26c0-2.21 1.79-4 4-4z" fill="#69d6f4"/><path d="m56 15.97.19-.33-.19-.19v-3.45h2c2.21 0 4 1.79 4 4v26h-6v-13.45l.19-.19-.19-.33-1.04-1.83c.26-.49.47-1.01.64-1.54l2.4-.66v-4l-2.4-.66c-.17-.53-.38-1.05-.64-1.54z" fill="#69d6f4"/><path d="m8 2v10 30h15 6 6 6 15v-40z" fill="#f0d0b4"/><path d="m58 20v4l-2.4.66c-.17.53-.38 1.05-.64 1.54l1.04 1.83v.52l-2.64 2.64-2.16-1.23c-.49.26-1.01.47-1.54.64l-.66 2.4h-4l-.66-2.4c-.53-.17-1.05-.38-1.54-.64l-2.16 1.23-2.83-2.83 1.23-2.16c-.26-.49-.47-1.01-.64-1.54l-2.4-.66v-4l2.4-.66c.17-.53.38-1.05.64-1.54l-1.23-2.16 2.83-2.83 2.16 1.23c.49-.26 1.01-.47 1.54-.64l.66-2.4h4l.66 2.4c.53.17 1.05.38 1.54.64l2.16-1.23 2.64 2.64v.52l-1.04 1.83c.26.49.47 1.01.64 1.54zm-6 2c0-2.76-2.24-5-5-5s-5 2.24-5 5 2.24 5 5 5 5-2.24 5-5z" fill="#fcd770"/><path d="m58 11h-1v-10h-50v10h-1c-2.757 0-5 2.243-5 5v30c0 2.757 2.243 5 5 5h20v2h-5.764c-1.144 0-2.172.635-2.684 1.658l-1.552 3.106v5.236h32v-5.236l-1.553-3.106c-.511-1.023-1.54-1.658-2.683-1.658h-5.764v-2h20c2.757 0 5-2.243 5-5v-30c0-2.757-2.243-5-5-5zm0 2c1.654 0 3 1.346 3 3v25h-4v-12.029l.439-.44-1.351-2.365c.104-.226.2-.455.286-.685l2.626-.718v-5.526l-2.625-.718c-.086-.23-.182-.459-.286-.685l1.351-2.365-.44-.44v-2.029zm-3.055 15.196-1.749 1.75-1.979-1.129-.485.256c-.45.238-.912.43-1.371.572l-.524.162-.601 2.193h-2.473l-.601-2.193-.524-.162c-.459-.142-.921-.334-1.371-.572l-.485-.256-1.979 1.129-1.749-1.75 1.13-1.979-.258-.486c-.236-.445-.429-.906-.572-1.369l-.161-.525-2.193-.6v-2.474l2.193-.6.161-.525c.144-.463.336-.924.572-1.369l.258-.486-1.13-1.979 1.749-1.75 1.979 1.129.485-.256c.45-.238.912-.43 1.371-.572l.524-.162.602-2.193h2.473l.601 2.193.524.162c.459.142.921.334 1.371.572l.485.256 1.979-1.129 1.749 1.75-1.13 1.979.258.486c.236.445.429.906.572 1.369l.161.525 2.193.6v2.474l-2.193.6-.161.525c-.144.463-.336.924-.572 1.369l-.258.486zm.055-25.196v10.029l-1.468-1.468-2.367 1.35c-.227-.104-.455-.2-.684-.286l-.717-2.625h-5.527l-.718 2.625c-.229.086-.457.181-.684.286l-2.367-1.35-3.907 3.908 1.351 2.365c-.104.226-.2.455-.286.685l-2.626.718v5.526l2.625.718c.086.23.182.459.286.685l-1.351 2.365 3.907 3.908 2.367-1.35c.227.104.455.2.684.286l.718 2.625h5.527l.718-2.625c.229-.086.457-.181.684-.286l2.367 1.35 1.468-1.468v10.029h-46v-38zm-31 40h4v2h-3c-.552 0-1-.449-1-1zm6 0h4v2h-4zm6 0h4v1c0 .551-.448 1-1 1h-3zm-30-30h1v28h-4v-25c0-1.654 1.346-3 3-3zm14.236 42h5.764v2h-7.382l.724-1.447c.171-.341.513-.553.894-.553zm-2.236 6v-2h28v2zm25.764-6c.381 0 .724.212.895.553l.723 1.447h-7.382v-2zm-7.764 2h-8v-6h8zm22-8h-52c-1.654 0-3-1.346-3-3v-3h19v1c0 1.654 1.346 3 3 3h14c1.654 0 3-1.346 3-3v-1h19v3c0 1.654-1.346 3-3 3z"/><path d="m47 16c-3.309 0-6 2.691-6 6s2.691 6 6 6 6-2.691 6-6-2.691-6-6-6zm0 10c-2.206 0-4-1.794-4-4s1.794-4 4-4 4 1.794 4 4-1.794 4-4 4z"/><path d="m13 15h2c1.103 0 2-.897 2-2v-6c0-1.103-.897-2-2-2h-2c-1.103 0-2 .897-2 2v6c0 1.103.897 2 2 2zm0-8h2l.001 6h-2.001z"/><path d="m19 5h2v10h-2z"/><path d="m13 27h2c1.103 0 2-.897 2-2v-6c0-1.103-.897-2-2-2h-2c-1.103 0-2 .897-2 2v6c0 1.103.897 2 2 2zm0-8h2v6h-2z"/><path d="m19 17h2v10h-2z"/><path d="m25 27h2c1.103 0 2-.897 2-2v-6c0-1.103-.897-2-2-2h-2c-1.103 0-2 .897-2 2v6c0 1.103.897 2 2 2zm0-8h2v6h-2z"/><path d="m13 39h2c1.103 0 2-.897 2-2v-6c0-1.103-.897-2-2-2h-2c-1.103 0-2 .897-2 2v6c0 1.103.897 2 2 2zm0-8h2v6h-2z"/><path d="m21 39h2c1.103 0 2-.897 2-2v-6c0-1.103-.897-2-2-2h-2c-1.103 0-2 .897-2 2v6c0 1.103.897 2 2 2zm0-8h2v6h-2z"/><path d="m29 15h2c1.103 0 2-.897 2-2v-6c0-1.103-.897-2-2-2h-2c-1.103 0-2 .897-2 2v6c0 1.103.897 2 2 2zm0-8h2l.001 6h-2.001z"/><path d="m31 17h2v10h-2z"/><path d="m27 29h2v10h-2z"/><path d="m31 29h2v10h-2z"/><path d="m23 5h2v10h-2z"/></svg>